<svg width="164" height="30" viewBox="0 0 164 30" fill="none" xmlns="http://www.w3.org/2000/svg">
<path d="M19 8.75C19 7.375 18.1 6.25 17 6.25H14V8.75H17V12.0625L13.52 17.5H10V11.25H6C3.79 11.25 2 13.4875 2 16.25V20H4C4 22.075 5.34 23.75 7 23.75C8.66 23.75 10 22.075 10 20H14.48L19 12.9375V8.75ZM7 21.25C6.45 21.25 6 20.6875 6 20H8C8 20.6875 7.55 21.25 7 21.25Z" fill="black"/>
<path d="M5 7.5H10V10H5V7.5ZM19 16.25C17.34 16.25 16 17.925 16 20C16 22.075 17.34 23.75 19 23.75C20.66 23.75 22 22.075 22 20C22 17.925 20.66 16.25 19 16.25ZM19 21.25C18.45 21.25 18 20.6875 18 20C18 19.3125 18.45 18.75 19 18.75C19.55 18.75 20 19.3125 20 20C20 20.6875 19.55 21.25 19 21.25Z" fill="black"/>
<path d="M53.342 8.864V11.33H48.194V13.994H52.046V16.388H48.194V21.5H45.116V8.864H53.342ZM54.3478 16.46C54.3478 15.428 54.5398 14.522 54.9238 13.742C55.3198 12.962 55.8538 12.362 56.5258 11.942C57.1978 11.522 57.9478 11.312 58.7758 11.312C59.4838 11.312 60.1018 11.456 60.6298 11.744C61.1698 12.032 61.5838 12.41 61.8718 12.878V11.456H64.9498V21.5H61.8718V20.078C61.5718 20.546 61.1518 20.924 60.6118 21.212C60.0838 21.5 59.4658 21.644 58.7578 21.644C57.9418 21.644 57.1978 21.434 56.5258 21.014C55.8538 20.582 55.3198 19.976 54.9238 19.196C54.5398 18.404 54.3478 17.492 54.3478 16.46ZM61.8718 16.478C61.8718 15.71 61.6558 15.104 61.2238 14.66C60.8038 14.216 60.2878 13.994 59.6758 13.994C59.0638 13.994 58.5418 14.216 58.1098 14.66C57.6898 15.092 57.4798 15.692 57.4798 16.46C57.4798 17.228 57.6898 17.84 58.1098 18.296C58.5418 18.74 59.0638 18.962 59.6758 18.962C60.2878 18.962 60.8038 18.74 61.2238 18.296C61.6558 17.852 61.8718 17.246 61.8718 16.478ZM71.2625 21.644C70.3865 21.644 69.6065 21.494 68.9225 21.194C68.2385 20.894 67.6985 20.486 67.3025 19.97C66.9065 19.442 66.6845 18.854 66.6365 18.206H69.6785C69.7145 18.554 69.8765 18.836 70.1645 19.052C70.4525 19.268 70.8065 19.376 71.2265 19.376C71.6105 19.376 71.9045 19.304 72.1085 19.16C72.3245 19.004 72.4325 18.806 72.4325 18.566C72.4325 18.278 72.2825 18.068 71.9825 17.936C71.6825 17.792 71.1965 17.636 70.5245 17.468C69.8045 17.3 69.2045 17.126 68.7245 16.946C68.2445 16.754 67.8305 16.46 67.4825 16.064C67.1345 15.656 66.9605 15.11 66.9605 14.426C66.9605 13.85 67.1165 13.328 67.4285 12.86C67.7525 12.38 68.2205 12.002 68.8325 11.726C69.4565 11.45 70.1945 11.312 71.0465 11.312C72.3065 11.312 73.2965 11.624 74.0165 12.248C74.7485 12.872 75.1685 13.7 75.2765 14.732H72.4325C72.3845 14.384 72.2285 14.108 71.9645 13.904C71.7125 13.7 71.3765 13.598 70.9565 13.598C70.5965 13.598 70.3205 13.67 70.1285 13.814C69.9365 13.946 69.8405 14.132 69.8405 14.372C69.8405 14.66 69.9905 14.876 70.2905 15.02C70.6025 15.164 71.0825 15.308 71.7305 15.452C72.4745 15.644 73.0805 15.836 73.5485 16.028C74.0165 16.208 74.4245 16.508 74.7725 16.928C75.1325 17.336 75.3185 17.888 75.3305 18.584C75.3305 19.172 75.1625 19.7 74.8265 20.168C74.5025 20.624 74.0285 20.984 73.4045 21.248C72.7925 21.512 72.0785 21.644 71.2625 21.644ZM82.8117 18.89V21.5H81.2457C80.1297 21.5 79.2597 21.23 78.6357 20.69C78.0117 20.138 77.6997 19.244 77.6997 18.008V14.012H76.4757V11.456H77.6997V9.008H80.7777V11.456H82.7937V14.012H80.7777V18.044C80.7777 18.344 80.8497 18.56 80.9937 18.692C81.1377 18.824 81.3777 18.89 81.7137 18.89H82.8117ZM93.0746 8.864C94.4066 8.864 95.5706 9.128 96.5666 9.656C97.5626 10.184 98.3306 10.928 98.8706 11.888C99.4226 12.836 99.6986 13.934 99.6986 15.182C99.6986 16.418 99.4226 17.516 98.8706 18.476C98.3306 19.436 97.5566 20.18 96.5486 20.708C95.5526 21.236 94.3946 21.5 93.0746 21.5H88.3406V8.864H93.0746ZM92.8766 18.836C94.0406 18.836 94.9466 18.518 95.5946 17.882C96.2426 17.246 96.5666 16.346 96.5666 15.182C96.5666 14.018 96.2426 13.112 95.5946 12.464C94.9466 11.816 94.0406 11.492 92.8766 11.492H91.4186V18.836H92.8766ZM110.887 16.316C110.887 16.604 110.869 16.904 110.833 17.216H103.867C103.915 17.84 104.113 18.32 104.461 18.656C104.821 18.98 105.259 19.142 105.775 19.142C106.543 19.142 107.077 18.818 107.377 18.17H110.653C110.485 18.83 110.179 19.424 109.735 19.952C109.303 20.48 108.757 20.894 108.097 21.194C107.437 21.494 106.699 21.644 105.883 21.644C104.899 21.644 104.023 21.434 103.255 21.014C102.487 20.594 101.887 19.994 101.455 19.214C101.023 18.434 100.807 17.522 100.807 16.478C100.807 15.434 101.017 14.522 101.437 13.742C101.869 12.962 102.469 12.362 103.237 11.942C104.005 11.522 104.887 11.312 105.883 11.312C106.855 11.312 107.719 11.516 108.475 11.924C109.231 12.332 109.819 12.914 110.239 13.67C110.671 14.426 110.887 15.308 110.887 16.316ZM107.737 15.506C107.737 14.978 107.557 14.558 107.197 14.246C106.837 13.934 106.387 13.778 105.847 13.778C105.331 13.778 104.893 13.928 104.533 14.228C104.185 14.528 103.969 14.954 103.885 15.506H107.737ZM115.589 8.18V21.5H112.511V8.18H115.589ZM119.367 10.412C118.827 10.412 118.383 10.256 118.035 9.944C117.699 9.62 117.531 9.224 117.531 8.756C117.531 8.276 117.699 7.88 118.035 7.568C118.383 7.244 118.827 7.082 119.367 7.082C119.895 7.082 120.327 7.244 120.663 7.568C121.011 7.88 121.185 8.276 121.185 8.756C121.185 9.224 121.011 9.62 120.663 9.944C120.327 10.256 119.895 10.412 119.367 10.412ZM120.897 11.456V21.5H117.819V11.456H120.897ZM127.646 18.62L129.824 11.456H133.1L129.536 21.5H125.738L122.174 11.456H125.468L127.646 18.62ZM143.863 16.316C143.863 16.604 143.845 16.904 143.809 17.216H136.843C136.891 17.84 137.089 18.32 137.437 18.656C137.797 18.98 138.235 19.142 138.751 19.142C139.519 19.142 140.053 18.818 140.353 18.17H143.629C143.461 18.83 143.155 19.424 142.711 19.952C142.279 20.48 141.733 20.894 141.073 21.194C140.413 21.494 139.675 21.644 138.859 21.644C137.875 21.644 136.999 21.434 136.231 21.014C135.463 20.594 134.863 19.994 134.431 19.214C133.999 18.434 133.783 17.522 133.783 16.478C133.783 15.434 133.993 14.522 134.413 13.742C134.845 12.962 135.445 12.362 136.213 11.942C136.981 11.522 137.863 11.312 138.859 11.312C139.831 11.312 140.695 11.516 141.451 11.924C142.207 12.332 142.795 12.914 143.215 13.67C143.647 14.426 143.863 15.308 143.863 16.316ZM140.713 15.506C140.713 14.978 140.533 14.558 140.173 14.246C139.813 13.934 139.363 13.778 138.823 13.778C138.307 13.778 137.869 13.928 137.509 14.228C137.161 14.528 136.945 14.954 136.861 15.506H140.713ZM148.565 13.13C148.925 12.578 149.375 12.146 149.915 11.834C150.455 11.51 151.055 11.348 151.715 11.348V14.606H150.869C150.101 14.606 149.525 14.774 149.141 15.11C148.757 15.434 148.565 16.01 148.565 16.838V21.5H145.487V11.456H148.565V13.13ZM163.446 11.456L157.146 26.27H153.834L156.138 21.158L152.052 11.456H155.49L157.812 17.738L160.116 11.456H163.446Z" fill="#333333"/>
</svg>
